<?xml version="1.0" encoding="utf-8"?>
<!-- Generator: Adobe Illustrator 19.2.1, SVG Export Plug-In . SVG Version: 6.00 Build 0)  -->
<svg version="1.1" id="Layer_1" xmlns="http://www.w3.org/2000/svg" xmlns:xlink="http://www.w3.org/1999/xlink" x="0px" y="0px"
	 viewBox="0 0 465 148.3" style="enable-background:new 0 0 465 148.3;" xml:space="preserve">
<style type="text/css">
	.st0{fill:#0A4971;}
	.st1{fill:#FFFFFF;}
	.st2{fill:#EE433D;}
</style>
<g id="wuJaTm_1_">
	<g id="_x36_jUlFP_1_">
		<g>
			<path class="st0" d="M218.7,25.1c-0.3-2.2,0.2-4.1,0.8-5.9c0.9-2.8,2.9-4.6,5.6-5.6c2.2-0.8,4.5-0.8,6.8-0.8
				c17.8,0,35.6,0,53.4,0c4.1,0,7.6,1.5,9.6,5.2c0.9,1.7,1.3,3.6,1.4,5.6c0.1,3.8,0.2,7.6,0,11.4c-0.2,3.6-1.2,6.9-4.5,9
				c-0.5,0.3-0.6,0.6-0.2,1.1c1.7,2,2.1,4.5,2.1,7c0.1,3.1,0,6.2,0,9.3c0,2-0.1,3.9-0.7,5.8c-0.5,1.7-1.6,3.1-2.9,4.3
				c-0.5,0.5-1.2,0.9-1.9,1.4c2.8,0.3,5.6,0.6,7.7,2.6c2.3-6.1,4.6-12,6.9-18c1.9-4.8,3.7-9.6,5.6-14.4c2.7-7.1,5.4-14.3,8.2-21.4
				c0.6-1.6,1.2-3.3,2.3-4.8c1.4-1.8,3.1-3.1,5.4-3.6c1.7-0.4,3.4-0.6,5.1-0.6c7.4,0,14.7-0.1,22.1,0.1c4.8,0.1,8.4,1.9,10.3,7
				c1.7,4.4,3.4,8.9,5,13.3c0.1,0.2,0.2,0.4,0.4,0.5c0-3.5-0.1-7,0-10.4c0.1-3.9,1.7-7.1,5.3-9c1.6-0.8,3.4-1.2,5.3-1.2
				c19.6,0,39.2-0.1,58.9,0c4.1,0,7.5,1.6,9.4,5.4c0.8,1.6,1.2,3.5,1.2,5.4c0,4.4,0.1,8.9,0,13.3c-0.1,4-1.5,7.5-5.2,9.5
				c-1.7,0.9-3.7,1.3-5.7,1.4c-2.7,0.1-5.4,0-8.1,0c-0.5,0-0.8,0-0.8,0.7c0,12.9,0,25.9,0,38.8c0,0.1,0,0.3,0.1,0.4
				c0.6-5.1,2.5-9.5,6.4-12.8c3.9-3.4,8.6-5,13.6-4.5c12.8,1.4,17.8,11.1,17.3,19.5c-0.7,10.3-7.9,17.1-17.7,17.6
				c-8.9,0.5-18.2-5-19.8-17.4c0,1.4,0.1,2.8,0,4.2c-0.1,2.8-0.6,5.5-2.6,7.7c-1.2,1.4-2.7,2.5-4.6,3c-1.8,0.5-3.7,0.7-5.6,0.7
				c-5.3,0-10.6-0.1-15.9,0c-2,0-3.9-0.2-5.7-0.9c-1.8-0.6-3.3-1.8-4.4-3.5c-0.3-0.5-0.6-0.8-1-0.1c-2,3.1-5.1,4.3-8.6,4.3
				c-6.9,0.1-13.9,0.1-20.8,0c-4.2,0-7.5-1.8-9.6-5.5c-0.7-1.3-1.1-2.9-1.5-4.3c-0.2-0.7-0.5-0.9-1.3-0.9c-4.5,0-9,0-13.5,0
				c-0.7,0-1,0.2-1.2,0.8c-0.7,2.1-1.2,4.3-2.7,6.1c-1.3,1.5-2.8,2.7-4.8,3.2c-1.7,0.4-3.4,0.6-5.2,0.6c-6.1,0-12.3,0-18.4,0
				c-1.9,0-3.7-0.5-5.5-1.1c-0.3-0.1-0.5-0.2-0.9-0.1c-1.9,0.7-3.8,1.1-5.8,1.1c-19.4,0-38.8,0-58.2,0c-2.7,0-5.3-0.5-7.5-2.4
				c-1.4-1.2-2.5-2.7-3-4.5c-0.5-1.9-0.7-3.9-0.7-5.9c0-15,0-30.1,0-45.1c0-0.4,0-0.8,0-1.4c-0.7,0.8-1.2,1.4-1.8,1.9
				c-2.2,2-5,2.2-7.6,2.7c-2.6,0.5-2.6,0.4-3,3.1c-1.2,7.6-2,15.3-2.7,23c-0.4,5.1-0.6,10.3-0.7,15.4c-0.1,2.7-0.5,5.3-1.4,7.8
				c-1,2.7-3.2,4.7-5.9,5.7c-3.8,1.3-7.8,2.3-11.7,3.2c-2.2,0.5-4.2-0.4-6.2-1.1c-0.6-0.2-0.9-0.2-1.3,0.2c-4.7,4.2-10.3,6-16.4,6.6
				c-1.2,0.1-2.4,0-3.6-0.2c-1.5-0.3-3.1-0.6-4.6-0.9c-0.5-0.1-0.7,0-1.1,0.4c-1.9,2-4.1,3.6-6.8,4.2c-5.7,1.4-11.5,2.9-17.3,4
				c-1.2,0.2-2.3,0.4-3.6-0.1c0.1,1.9-0.5,3.5-0.8,5.2c-0.6,3.3-2.5,5.7-5.3,7.1c-2.1,1-4.4,1.6-6.8,1.1c-1.5-0.3-3.1-0.7-4.6-1
				c-0.8-0.2-1.6-0.5-2.3-1c-2.5-1.7-5-3.5-7-5.8c-0.5-0.6-0.7-0.4-1.1,0.1c-1.1,1.4-2.4,2.7-3.7,3.9c-2.5,2.2-5.5,3.1-8.6,3.6
				c-1,0.2-2-0.2-2.9-0.4c-0.4-0.1-0.7-0.2-0.8,0.4c-0.8,4.5-3.9,7.1-7.4,9.4c-3.4,2.3-7.3,3.4-11.2,3.5c-5.1,0-9.7-2.3-11.4-8.4
				c-1.2-4.4-1.1-8.9-1.1-13.4c-0.1-25.4,0.1-50.7,0.4-76.1c0-1.9,0-3.8,0.2-5.7c0.1-1-0.3-1.1-1.1-1c-11.7,0.3-23.4,0.7-35,0.9
				c-3.2,0.1-6.4-0.7-8.9-3.1c-1.1-1-1.9-2.3-2.4-3.7c-1.2-3.2-0.5-6.2,0.4-9.2c0.7-2.5,1.4-5.1,2.3-7.6c1.2-3.2,3.5-5.5,7-6.5
				c3.4-1,6.8-0.9,10.3-1.2c6.6-0.5,13.3-1,19.9-1.4c2.5-0.2,5-0.4,7.5-0.5c0.8,0,1.1-0.2,1.3-1c0.4-2.4,1.1-4.8,2.8-6.7
				c1.3-1.4,2.7-2.4,4.5-3.1c3.7-1.4,7.1-0.1,10.5,0.8c3.1,0.8,5.9,2.4,8.4,4.4c1,0.8,1.7,1.9,2.5,3c0.3,0.5,0.7,0.6,1.2,0.6
				c7.4-0.5,14.9-1,22.3-1.5c6.5-0.4,13-0.9,19.5-1.4c6.6-0.5,13.3-0.9,19.9-1.4c5.6-0.4,11.1-0.8,16.7-1.1c1.5-0.1,2.9-0.2,4.4-0.3
				c2.9-0.4,5.7-0.1,8.3,1c2.9,1.2,4.8,3.4,5.7,6.5c1.1,3.9,1.2,7.9,1.3,11.9c0,0.8,0,1.4,1.1,0.9c0.1-0.1,0.3,0,0.4,0
				c0.8-0.1,1.8,0.3,2.3-0.2c0.5-0.5,0.4-1.5,0.5-2.2c0.5-2.3,0.9-4.6,2.6-6.4c1.2-1.3,2.6-2.2,4.3-2.8c3.4-1.2,6.5-0.3,9.7,0.8
				c2,0.7,3.9,1.5,5.8,2.4c2.9,1.4,5.2,3.5,5.8,6.8c0.2,0.8,0.4,1.1,1.2,1c2.1-0.2,4.1,0.6,6.2,1.1C217.6,24.4,218,24.8,218.7,25.1z
				 M371.9,46.4c0,0,0-0.1,0-0.1C371.9,46.3,371.8,46.3,371.9,46.4C371.9,46.3,371.9,46.4,371.9,46.4c0,0.2,0,0.3,0.1,0.5
				c1.1,3,2.3,6,3.4,9c1.8,4.6,3.6,9.3,5.3,13.9c1.8,4.9,3.7,9.8,5.5,14.7c0.1,0.3,0.1,0.6,0.5,0.7c0-12.1,0-24.1,0-36.2
				c0-1-0.2-1.2-1.2-1.2C381,47.9,376.3,48.3,371.9,46.4z M55.8,88.2c-0.2,10.6-0.2,23.2-0.2,35.7c0,4.1,0,8.3,0.4,12.4
				c0.3,2.7,1.9,4.2,4.4,3.9c3.2-0.4,6-1.6,8.4-3.6c1.7-1.3,2.5-3.1,2.4-5.3c-0.1-2-0.2-4.1-0.3-6.1c-0.5-10.1-0.9-20.3-0.9-30.4
				c0-16.6,0.5-33.2,0.7-49.8c0-3-0.1-6.1,0.3-9.1c0.1-0.6,0.3-0.9,0.9-0.9c2.2-0.1,4.4-0.3,6.6-0.4c6.2-0.3,12.5-0.5,18.7-0.8
				c2.7-0.1,5.3-0.4,8,0.1c1,0.2,2,0.1,3-0.1c0.9-0.2,1.8-0.3,2.8-0.3c7.2-0.2,14.5-0.5,21.8-0.7c10.5-0.3,21-1,31.5-0.9
				c0.6,0,1.1-0.1,1.7-0.2c2-0.4,3.1-1.5,3.1-3.1c0.1-4.6-0.1-9.3-0.5-13.9c-0.2-2.2-1.3-3.1-3.4-3.1c-1.1,0-2.3,0-3.4,0.1
				c-4.5,0.3-8.9,0.7-13.4,1c-5.8,0.4-11.6,0.8-17.4,1.2c-6.4,0.5-12.8,1-19.2,1.4c-5.8,0.4-11.5,0.8-17.3,1.2
				c-6.9,0.5-13.9,1-20.8,1.5c-1,0.1-1.5-0.1-1.5-1.3c0.1-2.8-1.3-4.7-3.8-5.9C66,9.5,63.5,8.6,60.9,8c-1.2-0.3-2.4,0.3-3.1,1.5
				c-0.4,0.6-0.6,1.3-0.7,2c-0.2,1.9-0.3,3.8-0.4,5.8c-0.1,1.7-0.1,1.7-1.7,1.8c-6.3,0.4-12.7,0.9-19,1.3c-7.3,0.5-14.7,1-22,1.5
				c-1.7,0.1-2.8,0.9-3.3,2.5c-0.8,2.6-1.6,5.2-2.4,7.9c-0.8,2.9,0.2,4.2,3.3,4.2c0.2,0,0.4,0,0.5,0c5.5-0.1,11-0.3,16.5-0.4
				c9-0.2,17.9-0.5,26.9-0.8c1,0,1.2,0.3,1.1,1.2c-0.5,5.4-0.4,10.9-0.6,16.3C55.8,64,55.8,75.1,55.8,88.2z M339.6,20.9
				c-4.1,0-8.1,0-12.2,0c-1,0-1.7,0.4-2.3,1.3c-0.7,1-0.8,2.1-1.2,3.1c-1,3-2.4,5.9-3.4,8.9c-1.1,3.2-2.5,6.3-3.7,9.5
				c-0.8,2.2-1.6,4.3-2.5,6.4c-1.8,4.5-3.4,9.1-5.2,13.7c-0.9,2.3-1.8,4.7-2.7,7c-1.2,2.8-2.1,5.7-3.3,8.4c-1,2.3-1.8,4.8-2.7,7.1
				c-1.1,2.8-2.1,5.7-3.3,8.5c-0.6,1.3,0,2.4,1.3,2.8c0.6,0.2,1.1,0.1,1.7,0.1c6.5,0,13.1,0,19.6,0c0.4,0,0.9,0,1.3-0.1
				c0.7-0.1,1.6-0.3,1.7-1.1c0.2-1.1,0.8-2,1-3.1c0.4-1.9,1.2-3.7,1.8-5.6c0.2-0.8,0.6-1,1.4-1c7.8,0,15.6,0,23.5,0
				c2.4,0,2.4,0,3.2,2.2c0.7,2,1.4,4.1,1.9,6.2c0.4,1.6,1,2.4,2.7,2.4c7.1,0,14.1,0,21.2,0c1.8,0,2.6-1.4,2-3.1
				c-1.9-5-3.8-9.9-5.7-14.9c-1-2.7-1.9-5.5-3-8.2c-0.9-2.3-1.8-4.7-2.7-7c-1.5-3.8-2.9-7.7-4.3-11.6c-0.7-1.9-1.4-3.7-2.1-5.6
				c-1.8-4.3-3.3-8.7-5-13.1c-0.7-1.8-1.4-3.7-2-5.6c-0.6-1.7-1.3-3.4-1.9-5.1c-0.7-2.2-1.4-2.6-3.8-2.6
				C347.1,20.9,343.3,20.9,339.6,20.9z M226.8,59.5c0,11.8,0,23.7,0,35.5c0,0.4,0,0.8,0,1.2c0,0.7,0.4,1,0.9,1.3
				c0.5,0.2,1.1,0.3,1.7,0.3c19.8,0,39.5,0,59.3,0c2,0,2.6-0.7,2.6-2.7c0-3.8,0-7.5,0-11.3c0-2-0.7-2.7-2.7-2.7c-12,0-24,0-36,0
				c-1,0-1.2-0.3-1.2-1.3c0.1-4.3,0.1-8.5,0-12.8c0-1,0.2-1.2,1.2-1.2c10,0,19.9,0,29.9,0c2,0,3.1-0.9,3-3c-0.1-3.6,0-7.2,0-10.8
				c0-2.2-0.7-2.9-2.8-2.9c-10,0-20.1,0-30.1,0c-1,0-1.2-0.3-1.2-1.3c0.1-3.1,0-6.1,0-9.2c0-0.7,0.2-1,0.9-1c11.1,0,22.3,0,33.4,0
				c1.1,0,1.9-0.5,2.1-1.6c0.1-0.5,0.2-1,0.2-1.5c0-3.6,0-7.3,0-10.9c0-2.2-0.6-2.8-2.8-2.8c-18.7,0-37.3,0-56,0
				c-1.9,0-2.5,0.6-2.5,2.5C226.8,35.5,226.8,47.5,226.8,59.5z M407.1,21c-9.7,0-19.4,0-29.1,0c-0.3,0-0.6,0-1,0
				c-1,0.1-1.8,0.8-1.8,1.8c0,5,0,10,0,15c0,1.3,0.6,1.8,1.9,1.8c5.4,0,10.8,0,16.2,0c1.6,0,1.4-0.2,1.4,1.4c0,17.9,0,35.8,0,53.7
				c0,0.3,0,0.6,0,1c0.1,1.1,0.9,1.9,2,1.9c6.6,0,13.3,0,19.9,0c0.7,0,1.2-0.3,1.7-0.7c0.8-0.7,0.6-1.6,0.6-2.4
				c0-17.9,0-35.8,0-53.7c0-1,0.2-1.2,1.2-1.2c5.6,0,11.2,0,16.8,0c0.3,0,0.5-0.1,0.8-0.2c0.9-0.6,1.1-1.4,1.1-2.4
				c0-3.3,0-6.6,0-9.9c0-1.4,0-2.8,0-4.2c-0.1-1.4-0.9-2.1-2.2-2c-0.3,0-0.6,0-0.9,0C426.4,21,416.8,21,407.1,21z M87.4,97.1
				c-0.4-3.4-0.1-6.6,0.3-9.8c0.4-3.1,1-6.1,1.7-9.1c0.6-2.5-0.3-5.2-4.1-4.1c-2.1,0.6-4.1,1.5-5.9,2.7c-2.2,1.3-3.5,3.3-4.1,5.8
				c-1,4.2-1.2,8.5-1.4,12.9c-0.3,7.6,0.7,15.2,2.2,22.6c0.5,2.4,1.2,4.8,2.4,6.9c1.1,2,2.8,2.8,4.8,2.1c1.2-0.4,2.2-1.1,3.1-1.9
				c2.6-2.5,4.6-5.4,6.4-8.5c0.7-1.3,1.5-2.6,2.2-3.9c0.8,0.9,1.3,2,1.9,2.9c2.6,4.2,5.7,8,9.8,10.7c1.5,1,3.2,1.3,5,1.3
				c1,0,1.8-0.5,2.3-1.5c0.5-1.1,0.7-2.2,0.7-3.3c0-4.9,0.2-9.9,0.7-14.8c0.8-8,2-15.9,3.6-23.8C121.1,73.6,124.3,63,129,53
				c0.4-0.7,0.6-1.5,0.8-2.3c0.3-1.7-0.1-2.1-1.8-1.8c-2.4,0.5-4.6,1.3-6.8,2.1c-4.1,1.4-6.9,4-8.2,8.2c-0.1,0.4-0.3,0.8-0.5,1.2
				c-3.4,8.5-5.4,17.4-7.3,26.3c-0.7,3.2-0.8,6.6-1.6,9.9c-0.4-2.8-0.7-5.5-1.3-8.2c-0.6-2.6-3-4.4-5.8-2.7
				c-0.4,0.3-0.8,0.5-1.2,0.9c-2.1,1.8-3.7,3.8-5.1,6.1C89.2,94,88.4,95.5,87.4,97.1z M207.6,31.4C207.6,31.4,207.6,31.4,207.6,31.4
				c-1.6,0-3.2,0-4.8,0c-0.8,0-1-0.3-1-1c0-1.5,0.3-3,0.5-4.5c0.2-1.5-0.3-2.6-1.6-3.1c-2.3-1-4.7-2-7-2.8c-2.4-0.9-3.7-0.1-4.1,2.5
				c-0.4,2.5-0.7,5.1-1.1,7.6c-0.2,1.8-0.5,2-2.3,2c-2.4,0-4.8-0.1-7.2,0c-1.1,0-2.1,0.3-2.6,1.3c-1.2,2.5-2.4,4.9-2.9,7.7
				c-0.3,1.3,0.3,2.3,1.6,2.8c1.3,0.5,2.6,0.8,3.9,0.4c1.8-0.6,3.6-0.7,5.3-0.1c0.7,0.2,1.7-0.6,2.2,0.3c0.4,0.7-0.2,1.5-0.3,2.3
				c-0.4,2.9-0.9,5.9-1.3,8.8c-0.8,5-1.5,10.1-2,15.2c-0.5,4.8-1,9.7-1.4,14.5c-0.4,4.5-0.9,9-0.9,13.5c0,2.1,1.1,3,3.2,2.5
				c2.4-0.6,4.7-1.4,7.1-1.9c2.6-0.6,4-2.1,4-4.7c0-0.2,0-0.4,0-0.5c0.4-8.7,0.7-17.4,1.7-26.1c0.9-7.8,1.9-15.6,3.4-23.3
				c0.2-0.8,0.5-0.9,1.2-0.9c3.1,0.1,6.2-0.2,9.3-0.8c1.1-0.2,1.8-0.7,2.3-1.7c1.1-2,1.9-4,2.5-6.2c0.6-2.1-0.4-3.5-2.7-3.5
				C210.7,31.3,209.1,31.4,207.6,31.4z M166.8,51.3c-10.9,0.1-17.2,9.4-15.9,19.3c0.5,3.7,2.2,7,4.9,9.6c1.4,1.4,2.8,2.7,4.3,3.9
				c1.8,1.5,3.7,2.9,5.4,4.6c1.3,1.3,1.6,2.9,0.7,4.5c-0.9,1.6-2.3,2.6-4.2,2.7c-1.9,0.1-3.5-0.6-5.1-1.7c-1.7-1.1-3.2-2.4-5.2-3
				c-3.5-0.9-6.4,1.7-5.7,5.2c0.4,2.3,1.3,4.4,2.9,6c1.6,1.6,3.2,3.2,5.7,3.6c1.6,0.2,3.1,0.7,4.8,0.6c8-0.4,14.9-6,17.1-13.7
				c0.5-1.9,0.7-3.9,0.4-5.8c-0.7-3.6-2.6-6.5-5.4-8.8c-2.6-2.2-5.3-4.2-7.7-6.6c-1.7-1.7-2.9-3.6-2.9-6.1c0.1-2.4,1.9-3.9,4.2-3.5
				c1.5,0.3,2.7,1,3.7,2.1c1.8,2,4.1,2.6,6.5,1.6c1.7-0.7,2.5-1.8,2.5-3.6C177.8,56.7,173.1,51.2,166.8,51.3z M141.5,58.6
				c-3.8-0.1-7.5,0.7-11.1,1.9c-1.6,0.6-2.7,1.7-3.2,3.4c-0.4,1.4-0.4,2.8-0.1,4.1c0.3,1.5,0.9,2.9,2.7,3.2c1.1,0.2,1.4,1.1,1.3,2.1
				c-0.3,2.3-0.6,4.7-1,7c-0.9,6.3-1.8,12.6-2.6,18.9c-0.2,1.8-0.8,2.9-2.6,3.3c-1.4,0.3-2.7,1.1-3.2,2.6c-0.8,2-1.1,4.2-0.6,6.3
				c0.5,2,2.3,3.3,4.4,2.9c5-0.9,9.9-2.1,14.8-3.4c4-1,5.9-3.6,5.8-7.8c-0.1-2.5-2-4.1-4.5-3.7c-1.6,0.3-2,0-1.8-1.6
				c0.5-4.5,1.1-9,1.6-13.5c0.5-4,1.1-8.1,1.6-12.1c0.2-1.6,1-2.6,2.6-3.1c1.3-0.4,2-1.3,2.5-2.5c0.4-1.2,0.6-2.4,0.5-3.7
				c-0.2-2.5-1.7-4.1-4.2-4.3C143.4,58.5,142.5,58.6,141.5,58.6z M78.6,67.8c0.4,0.1,0.7-0.2,1-0.3c3.7-1.2,7.3-2.5,11.2-1
				c1.6,0.6,2.9,1.5,4,2.7c1.8,1.9,2.2,4.3,2.8,6.7c0.1,0.4-0.2,0.9,0.7,0.9c0.7,0,0.9-0.3,1-0.9c0.2-1,0.4-1.9,0.7-2.9
				c1.7-6.8,3.6-13.6,6.7-19.9c1.2-2.6,2.9-4.9,5.4-6.6c3.5-2.5,7.5-3.9,11.6-4.9c0.4-0.1,0.8-0.2,1.2-0.3
				c-4.5-0.1-8.9,0.1-13.3,0.2c-2.6,0.1-5.2,1-7.9,0.3c-0.5-0.1-1.1-0.2-1.7-0.1c-7.3,0.3-14.6,0.7-22,0.9c-1,0-1.2,0.3-1.2,1.2
				c-0.1,6.3-0.2,12.6-0.3,19C78.6,64.5,78.6,66.2,78.6,67.8z M456.9,89.1c0-5.9-4.6-10.5-10.6-10.5c-6,0-10.6,4.6-10.6,10.5
				c0,5.9,4.6,10.5,10.5,10.5C452.3,99.6,456.8,95.1,456.9,89.1z M131.4,41c0.7,0.4,1.5,0.5,2.2,1c3.1,1.8,4,4.7,4.3,8
				c0,0.5,0.1,0.6,0.6,0.6c3.1-0.3,6.1-0.3,9.1,0.7c0.7,0.2,1.1,0,1.5-0.5c2.8-2.9,5.9-5.2,9.9-6.2c1.5-0.4,2.9-0.7,4.4-1
				c0.6-0.1,1.3,0,1.6-0.3c0.4-0.4-0.1-1-0.1-1.6c0-0.3,0-0.6,0.1-0.8c0.2-0.6,0-0.7-0.7-0.7c-8.3-0.1-16.5,0.5-24.7,0.7
				C137,40.7,134.2,40.9,131.4,41z"/>
			<path class="st1" d="M55.8,88.2c0-13.1-0.1-24.3,0.2-35.5c0.2-5.4,0-10.9,0.6-16.3c0.1-0.9-0.1-1.2-1.1-1.2
				c-9,0.3-17.9,0.5-26.9,0.8c-5.5,0.1-11,0.3-16.5,0.4c-0.2,0-0.4,0-0.5,0c-3,0-4.1-1.3-3.3-4.2c0.7-2.6,1.6-5.3,2.4-7.9
				c0.5-1.6,1.7-2.4,3.3-2.5c7.3-0.5,14.7-1,22-1.5c6.3-0.4,12.7-0.9,19-1.3c1.6-0.1,1.6-0.1,1.7-1.8c0.1-1.9,0.3-3.8,0.4-5.8
				c0.1-0.7,0.3-1.4,0.7-2c0.7-1.1,1.9-1.7,3.1-1.5c2.6,0.6,5.1,1.4,7.4,2.6c2.4,1.3,3.9,3.1,3.8,5.9c0,1.2,0.5,1.4,1.5,1.3
				c6.9-0.5,13.9-1,20.8-1.5c5.8-0.4,11.5-0.8,17.3-1.2c6.4-0.5,12.8-1,19.2-1.4c5.8-0.4,11.6-0.8,17.4-1.2c4.5-0.3,8.9-0.7,13.4-1
				c1.1-0.1,2.3-0.1,3.4-0.1c2.2,0,3.2,0.9,3.4,3.1c0.5,4.6,0.6,9.3,0.5,13.9c0,1.7-1.1,2.8-3.1,3.1c-0.6,0.1-1.1,0.2-1.7,0.2
				c-10.5-0.1-21,0.6-31.5,0.9c-7.3,0.2-14.5,0.4-21.8,0.7c-0.9,0-1.9,0.2-2.8,0.3c-1,0.2-2,0.3-3,0.1c-2.7-0.5-5.3-0.2-8-0.1
				c-6.2,0.2-12.5,0.5-18.7,0.8c-2.2,0.1-4.4,0.3-6.6,0.4c-0.7,0-0.8,0.3-0.9,0.9c-0.4,3-0.2,6.1-0.3,9.1
				c-0.2,16.6-0.7,33.2-0.7,49.8c0,10.2,0.4,20.3,0.9,30.4c0.1,2,0.2,4.1,0.3,6.1c0.1,2.1-0.7,3.9-2.4,5.3c-2.5,2-5.3,3.2-8.4,3.6
				c-2.4,0.3-4.1-1.2-4.4-3.9c-0.4-4.1-0.4-8.3-0.4-12.4C55.6,111.4,55.6,98.9,55.8,88.2z"/>
			<path class="st2" d="M339.6,20.9c3.8,0,7.5,0,11.3,0c2.3,0,3.1,0.4,3.8,2.6c0.5,1.7,1.3,3.4,1.9,5.1c0.7,1.9,1.3,3.7,2,5.6
				c1.7,4.4,3.2,8.8,5,13.1c0.8,1.8,1.5,3.7,2.1,5.6c1.4,3.9,2.8,7.8,4.3,11.6c0.9,2.3,1.8,4.7,2.7,7c1.1,2.7,2,5.5,3,8.2
				c1.8,5,3.8,10,5.7,14.9c0.6,1.7-0.2,3.1-2,3.1c-7.1,0-14.1,0-21.2,0c-1.7,0-2.3-0.8-2.7-2.4c-0.5-2.1-1.2-4.2-1.9-6.2
				c-0.8-2.2-0.8-2.2-3.2-2.2c-7.8,0-15.6,0-23.5,0c-0.8,0-1.2,0.2-1.4,1c-0.6,1.9-1.3,3.7-1.8,5.6c-0.3,1.1-0.9,2-1,3.1
				c-0.1,0.8-1,0.9-1.7,1.1c-0.4,0.1-0.9,0.1-1.3,0.1c-6.5,0-13.1,0-19.6,0c-0.6,0-1.1,0-1.7-0.1c-1.3-0.4-1.9-1.5-1.3-2.8
				c1.2-2.8,2.2-5.6,3.3-8.5c1-2.4,1.7-4.8,2.7-7.1c1.2-2.8,2.1-5.7,3.3-8.4c1-2.3,1.8-4.7,2.7-7c1.8-4.5,3.4-9.1,5.2-13.7
				c0.9-2.1,1.7-4.3,2.5-6.4c1.2-3.2,2.6-6.3,3.7-9.5c1.1-3,2.4-5.9,3.4-8.9c0.4-1.1,0.5-2.2,1.2-3.1c0.6-0.9,1.2-1.3,2.3-1.3
				C331.4,20.9,335.5,20.9,339.6,20.9z M339.6,43.4c-0.2,0.1-0.2,0.1-0.2,0.2c-2.7,8.6-5.3,17.1-8,25.7c-0.2,0.8,0.2,0.7,0.7,0.7
				c4.9,0,9.9,0,14.8,0c0.9,0,0.9-0.3,0.7-1c-1-3.1-1.9-6.1-2.8-9.2C343,54.3,341.3,48.9,339.6,43.4z"/>
			<path class="st2" d="M226.8,59.5c0-12,0-24,0-36c0-1.9,0.6-2.5,2.5-2.5c18.7,0,37.3,0,56,0c2.2,0,2.8,0.6,2.8,2.8
				c0,3.6,0,7.3,0,10.9c0,0.5-0.1,1-0.2,1.5c-0.3,1.1-1,1.6-2.1,1.6c-11.1,0-22.3,0-33.4,0c-0.8,0-1,0.2-0.9,1c0,3.1,0.1,6.1,0,9.2
				c0,1,0.2,1.3,1.2,1.3c10,0,20.1,0,30.1,0c2.2,0,2.8,0.7,2.8,2.9c0,3.6-0.1,7.2,0,10.8c0,2.1-1,3.1-3,3c-10,0-19.9,0-29.9,0
				c-1,0-1.2,0.3-1.2,1.2c0.1,4.3,0.1,8.5,0,12.8c0,1,0.2,1.3,1.2,1.3c12,0,24,0,36,0c2,0,2.7,0.7,2.7,2.7c0,3.8,0,7.5,0,11.3
				c0,2-0.7,2.7-2.6,2.7c-19.8,0-39.5,0-59.3,0c-0.6,0-1.1,0-1.7-0.3c-0.6-0.2-0.9-0.6-0.9-1.3c0-0.4,0-0.8,0-1.2
				C226.8,83.2,226.8,71.3,226.8,59.5z"/>
			<path class="st2" d="M407.1,21c9.6,0,19.2,0,28.8,0c0.3,0,0.6,0,0.9,0c1.4-0.1,2.2,0.6,2.2,2c0.1,1.4,0,2.8,0,4.2
				c0,3.3,0,6.6,0,9.9c0,1-0.1,1.8-1.1,2.4c-0.3,0.2-0.5,0.2-0.8,0.2c-5.6,0-11.2,0-16.8,0c-0.9,0-1.2,0.2-1.2,1.2
				c0,17.9,0,35.8,0,53.7c0,0.8,0.1,1.7-0.6,2.4c-0.5,0.5-1,0.7-1.7,0.7c-6.6,0-13.3,0-19.9,0c-1.1,0-1.9-0.8-2-1.9c0-0.3,0-0.6,0-1
				c0-17.9,0-35.8,0-53.7c0-1.6,0.2-1.4-1.4-1.4c-5.4,0-10.8,0-16.2,0c-1.3,0-1.9-0.5-1.9-1.8c0-5,0-10,0-15c0-1,0.7-1.7,1.8-1.8
				c0.3,0,0.6,0,1,0C387.8,21,397.5,21,407.1,21z"/>
			<path class="st1" d="M87.4,97.1c0.9-1.6,1.8-3.1,2.7-4.5c1.4-2.3,3.1-4.4,5.1-6.1c0.4-0.3,0.8-0.6,1.2-0.9
				c2.8-1.7,5.2,0.1,5.8,2.7c0.6,2.7,0.9,5.4,1.3,8.2c0.8-3.3,1-6.6,1.6-9.9c1.8-8.9,3.9-17.8,7.3-26.3c0.2-0.4,0.4-0.8,0.5-1.2
				c1.3-4.2,4.1-6.8,8.2-8.2c2.3-0.8,4.5-1.6,6.8-2.1c1.6-0.3,2.1,0.2,1.8,1.8c-0.2,0.8-0.4,1.6-0.8,2.3
				c-4.7,10.1-7.8,20.6-10.1,31.5c-1.6,7.9-2.8,15.8-3.6,23.8c-0.5,4.9-0.7,9.8-0.7,14.8c0,1.2-0.2,2.3-0.7,3.3
				c-0.4,1-1.2,1.5-2.3,1.5c-1.7-0.1-3.5-0.3-5-1.3c-4.1-2.8-7.3-6.5-9.8-10.7c-0.6-1-1-2-1.9-2.9c-0.8,1.3-1.5,2.6-2.2,3.9
				c-1.8,3.1-3.8,6-6.4,8.5c-0.9,0.9-1.9,1.6-3.1,1.9c-2,0.6-3.7-0.1-4.8-2.1c-1.2-2.2-1.9-4.5-2.4-6.9c-1.5-7.5-2.5-15-2.2-22.6
				c0.2-4.3,0.5-8.6,1.4-12.9c0.6-2.5,1.9-4.4,4.1-5.8c1.9-1.1,3.8-2.1,5.9-2.7c3.8-1.1,4.7,1.6,4.1,4.1c-0.7,3-1.3,6.1-1.7,9.1
				C87.3,90.5,87.1,93.7,87.4,97.1z"/>
			<path class="st1" d="M207.6,31.4c1.6,0,3.1,0,4.7,0c2.2,0,3.3,1.4,2.7,3.5c-0.6,2.2-1.5,4.2-2.5,6.2c-0.5,0.9-1.2,1.4-2.3,1.7
				c-3.1,0.6-6.1,0.9-9.3,0.8c-0.7,0-1,0.1-1.2,0.9c-1.5,7.7-2.5,15.5-3.4,23.3c-1,8.7-1.3,17.4-1.7,26.1c0,0.2,0,0.4,0,0.5
				c0,2.7-1.4,4.2-4,4.7c-2.4,0.5-4.7,1.3-7.1,1.9c-2.1,0.5-3.2-0.3-3.2-2.5c0-4.5,0.5-9,0.9-13.5c0.5-4.8,0.9-9.7,1.4-14.5
				c0.5-5.1,1.3-10.1,2-15.2c0.4-2.9,0.9-5.8,1.3-8.8c0.1-0.8,0.7-1.6,0.3-2.3c-0.5-0.8-1.4,0-2.2-0.3c-1.8-0.6-3.6-0.4-5.3,0.1
				c-1.3,0.4-2.7,0.1-3.9-0.4c-1.3-0.5-1.8-1.5-1.6-2.8c0.5-2.7,1.7-5.2,2.9-7.7c0.5-1,1.6-1.3,2.6-1.3c2.4,0,4.8,0,7.2,0
				c1.8,0,2.1-0.2,2.3-2c0.3-2.5,0.7-5.1,1.1-7.6c0.4-2.6,1.7-3.4,4.1-2.5c2.4,0.9,4.7,1.9,7,2.8c1.3,0.6,1.8,1.6,1.6,3.1
				c-0.2,1.5-0.5,3-0.5,4.5c0,0.7,0.2,1,1,1C204.3,31.3,205.9,31.4,207.6,31.4C207.6,31.4,207.6,31.4,207.6,31.4z"/>
			<path class="st1" d="M166.8,51.3c6.3-0.1,11,5.4,11,11.1c0,1.8-0.8,2.9-2.5,3.6c-2.4,1-4.6,0.4-6.5-1.6c-1-1.1-2.2-1.9-3.7-2.1
				c-2.4-0.4-4.2,1-4.2,3.5c-0.1,2.5,1.1,4.4,2.9,6.1c2.4,2.4,5.1,4.4,7.7,6.6c2.8,2.3,4.7,5.2,5.4,8.8c0.4,2,0.2,3.9-0.4,5.8
				c-2.2,7.8-9.1,13.3-17.1,13.7c-1.6,0.1-3.2-0.4-4.8-0.6c-2.5-0.4-4.1-2-5.7-3.6c-1.6-1.6-2.5-3.7-2.9-6c-0.6-3.6,2.2-6.2,5.7-5.2
				c2,0.5,3.5,1.9,5.2,3c1.5,1,3.2,1.8,5.1,1.7c1.9-0.1,3.3-1.1,4.2-2.7c0.9-1.6,0.6-3.2-0.7-4.5c-1.7-1.7-3.6-3.1-5.4-4.6
				c-1.5-1.2-2.9-2.6-4.3-3.9c-2.7-2.7-4.4-5.9-4.9-9.6C149.6,60.7,155.9,51.4,166.8,51.3z"/>
			<path class="st1" d="M141.5,58.6c0.9,0,1.9-0.1,2.8,0c2.6,0.2,4.1,1.8,4.2,4.3c0.1,1.3-0.1,2.5-0.5,3.7c-0.4,1.2-1.2,2.1-2.5,2.5
				c-1.5,0.5-2.3,1.5-2.6,3.1c-0.5,4-1.1,8.1-1.6,12.1c-0.6,4.5-1.1,9-1.6,13.5c-0.2,1.6,0.2,1.9,1.8,1.6c2.5-0.4,4.4,1.2,4.5,3.7
				c0.1,4.2-1.8,6.7-5.8,7.8c-4.9,1.3-9.8,2.5-14.8,3.4c-2.1,0.4-3.9-0.9-4.4-2.9c-0.5-2.1-0.2-4.3,0.6-6.3c0.6-1.4,1.8-2.2,3.2-2.6
				c1.9-0.4,2.4-1.6,2.6-3.3c0.8-6.3,1.7-12.6,2.6-18.9c0.3-2.3,0.7-4.7,1-7c0.1-1-0.1-1.9-1.3-2.1c-1.8-0.3-2.4-1.7-2.7-3.2
				c-0.3-1.4-0.3-2.8,0.1-4.1c0.5-1.6,1.5-2.8,3.2-3.4C134,59.3,137.7,58.5,141.5,58.6z"/>
			<path class="st2" d="M456.9,89.1c0,6-4.6,10.5-10.7,10.5c-5.9,0-10.5-4.6-10.5-10.5c0-5.9,4.6-10.5,10.6-10.5
				C452.3,78.6,456.9,83.1,456.9,89.1z"/>
			<path class="st1" d="M371.9,46.4c4.4,1.9,9,1.5,13.6,1.5c1,0,1.2,0.3,1.2,1.2c0,12,0,24.1,0,36.2c-0.4-0.2-0.4-0.5-0.5-0.7
				c-1.8-4.9-3.6-9.8-5.5-14.7c-1.8-4.7-3.6-9.3-5.3-13.9c-1.1-3-2.3-6-3.4-9C372,46.7,372,46.5,371.9,46.4L371.9,46.4z"/>
			<path class="st1" d="M371.9,46.4C371.9,46.4,371.9,46.3,371.9,46.4c-0.1-0.1-0.1-0.1-0.1-0.1C371.9,46.3,371.9,46.3,371.9,46.4
				C371.9,46.4,371.9,46.4,371.9,46.4z"/>
			<path class="st0" d="M339.6,43.4c1.7,5.5,3.4,11,5,16.4c0.9,3.1,1.9,6.1,2.8,9.2c0.2,0.7,0.2,1-0.7,1c-4.9,0-9.8,0-14.8,0
				c-0.5,0-0.9,0.1-0.7-0.7c2.7-8.6,5.4-17.1,8-25.7C339.4,43.5,339.5,43.5,339.6,43.4z"/>
		</g>
	</g>
</g>
</svg>
